<?xml version="1.0" encoding="utf-8"?>
<!-- Generator: Adobe Illustrator 27.9.6, SVG Export Plug-In . SVG Version: 9.03 Build 54986)  -->
<svg version="1.1" id="Layer_1" xmlns="http://www.w3.org/2000/svg" xmlns:xlink="http://www.w3.org/1999/xlink" x="0px" y="0px"
	 viewBox="0 0 699.6 285.3" style="enable-background:new 0 0 699.6 285.3;" xml:space="preserve">
<style type="text/css">
	.st0{fill:#1F6C84;}
</style>
<g>
	<g>
		<path class="st0" d="M42.7,111.8c-5.4,0-9.8-0.9-13.3-2.8c-3.5-1.9-6.1-3.6-7.6-5.2l5.9-15.6c1,0.7,2.1,1.3,3.4,1.8
			c1.3,0.5,2.6,0.7,4.1,0.7c1.5,0,2.8-0.3,3.7-0.9c0.9-0.6,1.6-1.5,2-2.7c0.4-1.2,0.6-2.6,0.6-4.3v-38c0-2.4-0.3-4.1-1-5.1
			c-0.7-1-1.8-1.6-3.4-1.6c-1.2,0-2.5,0.4-3.9,1.1c-1.4,0.7-2.7,1.8-4,3.1v51.6l-4.2,7.1l-0.9,9.2H1.4V2h27.6v21.5
			c2.8-2.7,5.8-4.9,9-6.5c3.3-1.6,7.2-2.4,11.8-2.4c5.9,0,10.5,1.9,14.1,5.8c3.5,3.9,5.3,10.3,5.3,19.2v44.9c0,5.4-1,10.1-3.1,14.2
			c-2.1,4.1-5.1,7.3-9,9.6C53.2,110.6,48.4,111.8,42.7,111.8z"/>
		<path class="st0" d="M76.3,12.7V2h28.3v10.7H76.3z M76.3,110.1V16.1h28.3v93.9H76.3z"/>
		<path class="st0" d="M112.4,110.1V2h28.3v108.1H112.4z"/>
		<path class="st0" d="M167.4,111.6c-5.9,0-10.6-1.9-14.2-5.8c-3.6-3.9-5.4-10.2-5.4-19.1V41.7c0-5.3,1-10,3.1-14
			c2.1-4.1,5.1-7.3,9.1-9.6c4-2.3,8.8-3.5,14.5-3.5c3.5,0,6.7,0.5,9.5,1.5c2.8,1,5.2,2.1,7.1,3.4c1.9,1.3,3.4,2.3,4.4,3.1l-5.9,15.2
			c-1-0.5-2.2-1.1-3.4-1.6c-1.2-0.6-2.6-0.9-4.2-0.9c-1.5,0-2.8,0.3-3.7,0.9c-0.9,0.6-1.6,1.6-2.1,2.8c-0.4,1.2-0.7,2.7-0.7,4.4V81
			c0,2.4,0.4,4.2,1.2,5.3c0.8,1.1,1.9,1.7,3.4,1.7c1.3,0,2.6-0.4,4-1.1c1.4-0.8,2.7-1.8,3.9-3.2V32.1l-0.5-7.1V2h28.2v108.1h-27.5
			v-7.2c-2.8,2.8-5.8,5-9,6.5C175.8,110.9,171.9,111.6,167.4,111.6z"/>
		<path class="st0" d="M285.2,111.8c-5.4,0-9.8-0.9-13.3-2.8c-3.5-1.9-6.1-3.6-7.6-5.2l5.9-15.6c1,0.7,2.1,1.3,3.4,1.8
			c1.3,0.5,2.6,0.7,4.1,0.7c1.5,0,2.8-0.3,3.7-0.9c0.9-0.6,1.6-1.5,2-2.7c0.4-1.2,0.6-2.6,0.6-4.3v-38c0-2.4-0.3-4.1-1-5.1
			c-0.7-1-1.8-1.6-3.4-1.6c-1.2,0-2.5,0.4-3.9,1.1c-1.4,0.7-2.7,1.8-4,3.1v51.6l-4.2,7.1l-0.9,9.2H244V2h27.6v21.5
			c2.8-2.7,5.8-4.9,9-6.5c3.3-1.6,7.2-2.4,11.8-2.4c5.9,0,10.5,1.9,14.1,5.8c3.5,3.9,5.3,10.3,5.3,19.2v44.9c0,5.4-1,10.1-3.1,14.2
			c-2.1,4.1-5.1,7.3-9,9.6C295.7,110.6,290.9,111.8,285.2,111.8z"/>
		<path class="st0" d="M318.9,12.7V2h28.3v10.7H318.9z M318.9,110.1V16.1h28.3v93.9H318.9z"/>
		<path class="st0" d="M354.9,110.1V2h28.3v108.1H354.9z"/>
		<path class="st0" d="M409.9,111.6c-5.9,0-10.6-1.9-14.2-5.8c-3.6-3.9-5.4-10.2-5.4-19.1V41.7c0-5.3,1-10,3.1-14
			c2.1-4.1,5.1-7.3,9.1-9.6c4-2.3,8.8-3.5,14.5-3.5c3.5,0,6.7,0.5,9.5,1.5c2.8,1,5.2,2.1,7.1,3.4c1.9,1.3,3.4,2.3,4.4,3.1l-5.9,15.2
			c-1-0.5-2.2-1.1-3.4-1.6c-1.2-0.6-2.6-0.9-4.2-0.9c-1.5,0-2.8,0.3-3.7,0.9c-0.9,0.6-1.6,1.6-2.1,2.8c-0.4,1.2-0.7,2.7-0.7,4.4V81
			c0,2.4,0.4,4.2,1.2,5.3c0.8,1.1,1.9,1.7,3.4,1.7c1.3,0,2.6-0.4,4-1.1c1.4-0.8,2.7-1.8,3.9-3.2V32.1l-0.5-7.1V2h28.2v108.1h-27.5
			v-7.2c-2.8,2.8-5.8,5-9,6.5C418.4,110.9,414.5,111.6,409.9,111.6z"/>
		<path class="st0" d="M527.8,111.8c-5.4,0-9.8-0.9-13.3-2.8c-3.5-1.9-6.1-3.6-7.6-5.2l5.9-15.6c1,0.7,2.1,1.3,3.4,1.8
			c1.3,0.5,2.6,0.7,4.1,0.7c1.5,0,2.8-0.3,3.7-0.9c0.9-0.6,1.6-1.5,2-2.7c0.4-1.2,0.6-2.6,0.6-4.3v-38c0-2.4-0.3-4.1-1-5.1
			c-0.7-1-1.8-1.6-3.4-1.6c-1.2,0-2.5,0.4-3.9,1.1c-1.4,0.7-2.7,1.8-4,3.1v51.6l-4.2,7.1l-0.9,9.2h-22.5V2h27.6v21.5
			c2.8-2.7,5.8-4.9,9-6.5c3.3-1.6,7.2-2.4,11.8-2.4c5.9,0,10.5,1.9,14.1,5.8c3.5,3.9,5.3,10.3,5.3,19.2v44.9c0,5.4-1,10.1-3.1,14.2
			c-2.1,4.1-5.1,7.3-9,9.6C538.3,110.6,533.4,111.8,527.8,111.8z"/>
		<path class="st0" d="M561.4,12.7V2h28.3v10.7H561.4z M561.4,110.1V16.1h28.3v93.9H561.4z"/>
		<path class="st0" d="M597.5,110.1V2h28.3v108.1H597.5z"/>
		<path class="st0" d="M652.5,111.6c-5.9,0-10.6-1.9-14.2-5.8c-3.6-3.9-5.4-10.2-5.4-19.1V41.7c0-5.3,1-10,3.1-14
			c2.1-4.1,5.1-7.3,9.1-9.6c4-2.3,8.8-3.5,14.5-3.5c3.5,0,6.7,0.5,9.5,1.5c2.8,1,5.2,2.1,7.1,3.4c1.9,1.3,3.4,2.3,4.4,3.1l-5.9,15.2
			c-1-0.5-2.2-1.1-3.4-1.6c-1.2-0.6-2.6-0.9-4.2-0.9c-1.5,0-2.8,0.3-3.7,0.9c-0.9,0.6-1.6,1.6-2.1,2.8c-0.4,1.2-0.7,2.7-0.7,4.4V81
			c0,2.4,0.4,4.2,1.2,5.3c0.8,1.1,1.9,1.7,3.4,1.7c1.3,0,2.6-0.4,4-1.1c1.4-0.8,2.7-1.8,3.9-3.2V32.1l-0.5-7.1V2h28.2v108.1h-27.5
			v-7.2c-2.8,2.8-5.8,5-9,6.5C660.9,110.9,657,111.6,652.5,111.6z"/>
		<path class="st0" d="M42.7,283c-5.4,0-9.8-0.9-13.3-2.8c-3.5-1.9-6.1-3.6-7.6-5.2l5.9-15.6c1,0.7,2.1,1.3,3.4,1.8
			c1.3,0.5,2.6,0.7,4.1,0.7c1.5,0,2.8-0.3,3.7-1c0.9-0.6,1.6-1.5,2-2.7c0.4-1.2,0.6-2.6,0.6-4.3v-38c0-2.4-0.3-4.1-1-5.1
			c-0.7-1-1.8-1.6-3.4-1.6c-1.2,0-2.5,0.4-3.9,1.1c-1.4,0.7-2.7,1.8-4,3.1V265l-4.2,7.1l-0.9,9.2H1.4V173.2h27.6v21.5
			c2.8-2.7,5.8-4.9,9-6.5c3.3-1.6,7.2-2.4,11.8-2.4c5.9,0,10.5,1.9,14.1,5.8c3.5,3.9,5.3,10.3,5.3,19.2v44.9c0,5.4-1,10.1-3.1,14.2
			c-2.1,4.1-5.1,7.3-9,9.6C53.2,281.8,48.4,283,42.7,283z"/>
		<path class="st0" d="M76.3,183.9v-10.7h28.3v10.7H76.3z M76.3,281.3v-93.9h28.3v93.9H76.3z"/>
		<path class="st0" d="M112.4,281.3V173.2h28.3v108.1H112.4z"/>
		<path class="st0" d="M167.4,282.8c-5.9,0-10.6-1.9-14.2-5.8c-3.6-3.9-5.4-10.2-5.4-19.1v-45.1c0-5.3,1-10,3.1-14
			c2.1-4.1,5.1-7.3,9.1-9.6c4-2.3,8.8-3.5,14.5-3.5c3.5,0,6.7,0.5,9.5,1.5c2.8,1,5.2,2.1,7.1,3.4c1.9,1.3,3.4,2.3,4.4,3.1l-5.9,15.2
			c-1-0.5-2.2-1.1-3.4-1.6c-1.2-0.6-2.6-0.9-4.2-0.9c-1.5,0-2.8,0.3-3.7,0.9c-0.9,0.6-1.6,1.6-2.1,2.8c-0.4,1.2-0.7,2.7-0.7,4.4
			v37.6c0,2.4,0.4,4.2,1.2,5.3c0.8,1.1,1.9,1.7,3.4,1.7c1.3,0,2.6-0.4,4-1.1c1.4-0.8,2.7-1.8,3.9-3.2v-51.5l-0.5-7.1v-23.1h28.2
			v108.1h-27.5v-7.2c-2.8,2.8-5.8,5-9,6.5C175.8,282.1,171.9,282.8,167.4,282.8z"/>
		<path class="st0" d="M285.2,283c-5.4,0-9.8-0.9-13.3-2.8c-3.5-1.9-6.1-3.6-7.6-5.2l5.9-15.6c1,0.7,2.1,1.3,3.4,1.8
			c1.3,0.5,2.6,0.7,4.1,0.7c1.5,0,2.8-0.3,3.7-1c0.9-0.6,1.6-1.5,2-2.7c0.4-1.2,0.6-2.6,0.6-4.3v-38c0-2.4-0.3-4.1-1-5.1
			c-0.7-1-1.8-1.6-3.4-1.6c-1.2,0-2.5,0.4-3.9,1.1c-1.4,0.7-2.7,1.8-4,3.1V265l-4.2,7.1l-0.9,9.2H244V173.2h27.6v21.5
			c2.8-2.7,5.8-4.9,9-6.5c3.3-1.6,7.2-2.4,11.8-2.4c5.9,0,10.5,1.9,14.1,5.8c3.5,3.9,5.3,10.3,5.3,19.2v44.9c0,5.4-1,10.1-3.1,14.2
			c-2.1,4.1-5.1,7.3-9,9.6C295.7,281.8,290.9,283,285.2,283z"/>
		<path class="st0" d="M318.9,183.9v-10.7h28.3v10.7H318.9z M318.9,281.3v-93.9h28.3v93.9H318.9z"/>
		<path class="st0" d="M354.9,281.3V173.2h28.3v108.1H354.9z"/>
		<path class="st0" d="M409.9,282.8c-5.9,0-10.6-1.9-14.2-5.8c-3.6-3.9-5.4-10.2-5.4-19.1v-45.1c0-5.3,1-10,3.1-14
			c2.1-4.1,5.1-7.3,9.1-9.6c4-2.3,8.8-3.5,14.5-3.5c3.5,0,6.7,0.5,9.5,1.5c2.8,1,5.2,2.1,7.1,3.4c1.9,1.3,3.4,2.3,4.4,3.1l-5.9,15.2
			c-1-0.5-2.2-1.1-3.4-1.6c-1.2-0.6-2.6-0.9-4.2-0.9c-1.5,0-2.8,0.3-3.7,0.9c-0.9,0.6-1.6,1.6-2.1,2.8c-0.4,1.2-0.7,2.7-0.7,4.4
			v37.6c0,2.4,0.4,4.2,1.2,5.3c0.8,1.1,1.9,1.7,3.4,1.7c1.3,0,2.6-0.4,4-1.1c1.4-0.8,2.7-1.8,3.9-3.2v-51.5l-0.5-7.1v-23.1h28.2
			v108.1h-27.5v-7.2c-2.8,2.8-5.8,5-9,6.5C418.4,282.1,414.5,282.8,409.9,282.8z"/>
		<path class="st0" d="M527.8,283c-5.4,0-9.8-0.9-13.3-2.8c-3.5-1.9-6.1-3.6-7.6-5.2l5.9-15.6c1,0.7,2.1,1.3,3.4,1.8
			c1.3,0.5,2.6,0.7,4.1,0.7c1.5,0,2.8-0.3,3.7-1c0.9-0.6,1.6-1.5,2-2.7c0.4-1.2,0.6-2.6,0.6-4.3v-38c0-2.4-0.3-4.1-1-5.1
			c-0.7-1-1.8-1.6-3.4-1.6c-1.2,0-2.5,0.4-3.9,1.1c-1.4,0.7-2.7,1.8-4,3.1V265l-4.2,7.1l-0.9,9.2h-22.5V173.2h27.6v21.5
			c2.8-2.7,5.8-4.9,9-6.5c3.3-1.6,7.2-2.4,11.8-2.4c5.9,0,10.5,1.9,14.1,5.8c3.5,3.9,5.3,10.3,5.3,19.2v44.9c0,5.4-1,10.1-3.1,14.2
			c-2.1,4.1-5.1,7.3-9,9.6C538.3,281.8,533.4,283,527.8,283z"/>
		<path class="st0" d="M561.4,183.9v-10.7h28.3v10.7H561.4z M561.4,281.3v-93.9h28.3v93.9H561.4z"/>
		<path class="st0" d="M597.5,281.3V173.2h28.3v108.1H597.5z"/>
		<path class="st0" d="M652.5,282.8c-5.9,0-10.6-1.9-14.2-5.8c-3.6-3.9-5.4-10.2-5.4-19.1v-45.1c0-5.3,1-10,3.1-14
			c2.1-4.1,5.1-7.3,9.1-9.6c4-2.3,8.8-3.5,14.5-3.5c3.5,0,6.7,0.5,9.5,1.5c2.8,1,5.2,2.1,7.1,3.4c1.9,1.3,3.4,2.3,4.4,3.1l-5.9,15.2
			c-1-0.5-2.2-1.1-3.4-1.6c-1.2-0.6-2.6-0.9-4.2-0.9c-1.5,0-2.8,0.3-3.7,0.9c-0.9,0.6-1.6,1.6-2.1,2.8c-0.4,1.2-0.7,2.7-0.7,4.4
			v37.6c0,2.4,0.4,4.2,1.2,5.3c0.8,1.1,1.9,1.7,3.4,1.7c1.3,0,2.6-0.4,4-1.1c1.4-0.8,2.7-1.8,3.9-3.2v-51.5l-0.5-7.1v-23.1h28.2
			v108.1h-27.5v-7.2c-2.8,2.8-5.8,5-9,6.5C660.9,282.1,657,282.8,652.5,282.8z"/>
	</g>
</g>
</svg>
